# xmcd
#
# Track frame offsets:
# 150
# 14770
# 25593
# 36853
# 43250
# 47506
# 79110
# 91593
# 103460
# 111807
# 135390
# 142930
# 149800
# 165016
# 167924
# 171827
# 194501
# 211049
# 223900
# 240360
#
# Disc length: 3990 seconds
#
#
# Revision: 2
# Processed by: cddbd v1.5.2PL0 Copyright (c) Steve Scherf et al.
# Submitted via: FreeRIP 2.945 
#
DISCID=130f9414
DTITLE=Stravinsky - L'Oiseau de feu
DYEAR=1989
DGENRE=Classical
TTITLE0=Introduction
TTITLE1=Kashchei's Enchanted Garden
TTITLE2=Appearance of the Firebird persued by Ivan Tsarevich
TTITLE3=Dance of the Firebird
TTITLE4=Ivan Tsarevich captures the Firebird
TTITLE5=Supplication of the Firebird
TTITLE6=Appearance of Thirteen Enchanted Princesses
TTITLE7=The Princesses' Game with the Golden Apples
TTITLE8=Sudden appearance of Ivan Tsarevich
TTITLE9=The Princesses' Khorovod (Round Dance)
TTITLE10=Daybreak--Ivan Tsarevich enters Kashchei's Palace
TTITLE11=Magic Carillon, Appearance of Kaschei's Guardian Monsters and Capture of Ivan Tsarevich
TTITLE12=Arrival of Kashchei the Immortal--His dialogue with Ivan Tsarevich--Intercession of the Princesses
TTITLE13=Appearance of the Firebird
TTITLE14=Dance of Kashchei's retinue under the Firebird's Spell
TTITLE15=Infernal Dance of all Kashchei's Subjects
TTITLE16=Lullaby (Firebird)
TTITLE17=Kashchei's Awakening--Death of Kaschei--Profound Darkness
TTITLE18=Disappearance of the Palace and Dissolution of Kashchei's Enchantments--Animation of the Petrified Warriors--General Thanksgivi
TTITLE19=Scherzo Fantastique for Grand Orchestra, Op.3
EXTD=Philharmonia Orchestra\nEliahu Inbal
EXTT0=L'Oiseau de Feu - Der Feuervogel - The Firebird\nBallet (1910) - Complete Version
EXTT1=L'Oiseau de Feu - Der Feuervogel - The Firebird\nBallet (1910) - Complete Version
EXTT2=L'Oiseau de Feu - Der Feuervogel - The Firebird\nBallet (1910) - Complete Version
EXTT3=L'Oiseau de Feu - Der Feuervogel - The Firebird\nBallet (1910) - Complete Version
EXTT4=L'Oiseau de Feu - Der Feuervogel - The Firebird\nBallet (1910) - Complete Version
EXTT5=L'Oiseau de Feu - Der Feuervogel - The Firebird\nBallet (1910) - Complete Version
EXTT6=L'Oiseau de Feu - Der Feuervogel - The Firebird\nBallet (1910) - Complete Version
EXTT7=L'Oiseau de Feu - Der Feuervogel - The Firebird\nBallet (1910) - Complete Version
EXTT8=L'Oiseau de Feu - Der Feuervogel - The Firebird\nBallet (1910) - Complete Version
EXTT9=L'Oiseau de Feu - Der Feuervogel - The Firebird\nBallet (1910) - Complete Version
EXTT10=L'Oiseau de Feu - Der Feuervogel - The Firebird\nBallet (1910) - Complete Version
EXTT11=L'Oiseau de Feu - Der Feuervogel - The Firebird\nBallet (1910) - Complete Version
EXTT12=L'Oiseau de Feu - Der Feuervogel - The Firebird\nBallet (1910) - Complete Version
EXTT13=L'Oiseau de Feu - Der Feuervogel - The Firebird\nBallet (1910) - Complete Version
EXTT14=L'Oiseau de Feu - Der Feuervogel - The Firebird\nBallet (1910) - Complete Version
EXTT15=L'Oiseau de Feu - Der Feuervogel - The Firebird\nBallet (1910) - Complete Version
EXTT16=L'Oiseau de Feu - Der Feuervogel - The Firebird\nBallet (1910) - Complete Version
EXTT17=L'Oiseau de Feu - Der Feuervogel - The Firebird\nBallet (1910) - Complete Version
EXTT18=L'Oiseau de Feu - Der Feuervogel - The Firebird\nBallet (1910) - Complete Version
EXTT19=Scherzo fantastique, op. 3 (1908) pour grand orchestra
PLAYORDER=
